G04 #@! TF.GenerationSoftware,KiCad,Pcbnew,7.0.1-3b83917a11~171~ubuntu20.04.1*
G04 #@! TF.CreationDate,2023-03-12T14:12:20+01:00*
G04 #@! TF.ProjectId,fluidnc-bob,666c7569-646e-4632-9d62-6f622e6b6963,rev?*
G04 #@! TF.SameCoordinates,Original*
G04 #@! TF.FileFunction,Copper,L2,Bot*
G04 #@! TF.FilePolarity,Positive*
%FSLAX46Y46*%
G04 Gerber Fmt 4.6, Leading zero omitted, Abs format (unit mm)*
G04 Created by KiCad (PCBNEW 7.0.1-3b83917a11~171~ubuntu20.04.1) date 2023-03-12 14:12:20*
%MOMM*%
%LPD*%
G01*
G04 APERTURE LIST*
%ADD10C,0.300000*%
G04 #@! TA.AperFunction,NonConductor*
%ADD11C,0.300000*%
G04 #@! TD*
G04 #@! TA.AperFunction,ComponentPad*
%ADD12O,1.600000X1.600000*%
G04 #@! TD*
G04 #@! TA.AperFunction,ComponentPad*
%ADD13C,1.600000*%
G04 #@! TD*
G04 #@! TA.AperFunction,ComponentPad*
%ADD14C,2.000000*%
G04 #@! TD*
G04 #@! TA.AperFunction,ComponentPad*
%ADD15R,2.000000X2.000000*%
G04 #@! TD*
G04 #@! TA.AperFunction,ComponentPad*
%ADD16C,2.600000*%
G04 #@! TD*
G04 #@! TA.AperFunction,ComponentPad*
%ADD17R,2.600000X2.600000*%
G04 #@! TD*
G04 #@! TA.AperFunction,ComponentPad*
%ADD18O,1.400000X1.400000*%
G04 #@! TD*
G04 #@! TA.AperFunction,ComponentPad*
%ADD19C,1.400000*%
G04 #@! TD*
G04 #@! TA.AperFunction,ComponentPad*
%ADD20R,2.400000X1.600000*%
G04 #@! TD*
G04 #@! TA.AperFunction,ComponentPad*
%ADD21O,2.400000X1.600000*%
G04 #@! TD*
G04 #@! TA.AperFunction,ComponentPad*
%ADD22C,1.800000*%
G04 #@! TD*
G04 #@! TA.AperFunction,ComponentPad*
%ADD23R,1.800000X1.800000*%
G04 #@! TD*
G04 #@! TA.AperFunction,ComponentPad*
%ADD24R,1.600000X1.600000*%
G04 #@! TD*
G04 #@! TA.AperFunction,Conductor*
%ADD25C,0.400000*%
G04 #@! TD*
G04 APERTURE END LIST*
D10*
D11*
X138634285Y-113048214D02*
X139134285Y-113048214D01*
X139134285Y-113833928D02*
X139134285Y-112333928D01*
X139134285Y-112333928D02*
X138419999Y-112333928D01*
X137634285Y-113833928D02*
X137777142Y-113762500D01*
X137777142Y-113762500D02*
X137848571Y-113619642D01*
X137848571Y-113619642D02*
X137848571Y-112333928D01*
X136420000Y-112833928D02*
X136420000Y-113833928D01*
X137062857Y-112833928D02*
X137062857Y-113619642D01*
X137062857Y-113619642D02*
X136991428Y-113762500D01*
X136991428Y-113762500D02*
X136848571Y-113833928D01*
X136848571Y-113833928D02*
X136634285Y-113833928D01*
X136634285Y-113833928D02*
X136491428Y-113762500D01*
X136491428Y-113762500D02*
X136420000Y-113691071D01*
X135705714Y-113833928D02*
X135705714Y-112833928D01*
X135705714Y-112333928D02*
X135777142Y-112405357D01*
X135777142Y-112405357D02*
X135705714Y-112476785D01*
X135705714Y-112476785D02*
X135634285Y-112405357D01*
X135634285Y-112405357D02*
X135705714Y-112333928D01*
X135705714Y-112333928D02*
X135705714Y-112476785D01*
X134348571Y-113833928D02*
X134348571Y-112333928D01*
X134348571Y-113762500D02*
X134491428Y-113833928D01*
X134491428Y-113833928D02*
X134777142Y-113833928D01*
X134777142Y-113833928D02*
X134919999Y-113762500D01*
X134919999Y-113762500D02*
X134991428Y-113691071D01*
X134991428Y-113691071D02*
X135062856Y-113548214D01*
X135062856Y-113548214D02*
X135062856Y-113119642D01*
X135062856Y-113119642D02*
X134991428Y-112976785D01*
X134991428Y-112976785D02*
X134919999Y-112905357D01*
X134919999Y-112905357D02*
X134777142Y-112833928D01*
X134777142Y-112833928D02*
X134491428Y-112833928D01*
X134491428Y-112833928D02*
X134348571Y-112905357D01*
X133634285Y-113833928D02*
X133634285Y-112333928D01*
X133634285Y-112333928D02*
X132777142Y-113833928D01*
X132777142Y-113833928D02*
X132777142Y-112333928D01*
X131205713Y-113691071D02*
X131277141Y-113762500D01*
X131277141Y-113762500D02*
X131491427Y-113833928D01*
X131491427Y-113833928D02*
X131634284Y-113833928D01*
X131634284Y-113833928D02*
X131848570Y-113762500D01*
X131848570Y-113762500D02*
X131991427Y-113619642D01*
X131991427Y-113619642D02*
X132062856Y-113476785D01*
X132062856Y-113476785D02*
X132134284Y-113191071D01*
X132134284Y-113191071D02*
X132134284Y-112976785D01*
X132134284Y-112976785D02*
X132062856Y-112691071D01*
X132062856Y-112691071D02*
X131991427Y-112548214D01*
X131991427Y-112548214D02*
X131848570Y-112405357D01*
X131848570Y-112405357D02*
X131634284Y-112333928D01*
X131634284Y-112333928D02*
X131491427Y-112333928D01*
X131491427Y-112333928D02*
X131277141Y-112405357D01*
X131277141Y-112405357D02*
X131205713Y-112476785D01*
X128919999Y-113048214D02*
X128705713Y-113119642D01*
X128705713Y-113119642D02*
X128634284Y-113191071D01*
X128634284Y-113191071D02*
X128562856Y-113333928D01*
X128562856Y-113333928D02*
X128562856Y-113548214D01*
X128562856Y-113548214D02*
X128634284Y-113691071D01*
X128634284Y-113691071D02*
X128705713Y-113762500D01*
X128705713Y-113762500D02*
X128848570Y-113833928D01*
X128848570Y-113833928D02*
X129419999Y-113833928D01*
X129419999Y-113833928D02*
X129419999Y-112333928D01*
X129419999Y-112333928D02*
X128919999Y-112333928D01*
X128919999Y-112333928D02*
X128777142Y-112405357D01*
X128777142Y-112405357D02*
X128705713Y-112476785D01*
X128705713Y-112476785D02*
X128634284Y-112619642D01*
X128634284Y-112619642D02*
X128634284Y-112762500D01*
X128634284Y-112762500D02*
X128705713Y-112905357D01*
X128705713Y-112905357D02*
X128777142Y-112976785D01*
X128777142Y-112976785D02*
X128919999Y-113048214D01*
X128919999Y-113048214D02*
X129419999Y-113048214D01*
X127919999Y-113833928D02*
X127919999Y-112833928D01*
X127919999Y-113119642D02*
X127848570Y-112976785D01*
X127848570Y-112976785D02*
X127777142Y-112905357D01*
X127777142Y-112905357D02*
X127634284Y-112833928D01*
X127634284Y-112833928D02*
X127491427Y-112833928D01*
X126419999Y-113762500D02*
X126562856Y-113833928D01*
X126562856Y-113833928D02*
X126848571Y-113833928D01*
X126848571Y-113833928D02*
X126991428Y-113762500D01*
X126991428Y-113762500D02*
X127062856Y-113619642D01*
X127062856Y-113619642D02*
X127062856Y-113048214D01*
X127062856Y-113048214D02*
X126991428Y-112905357D01*
X126991428Y-112905357D02*
X126848571Y-112833928D01*
X126848571Y-112833928D02*
X126562856Y-112833928D01*
X126562856Y-112833928D02*
X126419999Y-112905357D01*
X126419999Y-112905357D02*
X126348571Y-113048214D01*
X126348571Y-113048214D02*
X126348571Y-113191071D01*
X126348571Y-113191071D02*
X127062856Y-113333928D01*
X125062857Y-113833928D02*
X125062857Y-113048214D01*
X125062857Y-113048214D02*
X125134285Y-112905357D01*
X125134285Y-112905357D02*
X125277142Y-112833928D01*
X125277142Y-112833928D02*
X125562857Y-112833928D01*
X125562857Y-112833928D02*
X125705714Y-112905357D01*
X125062857Y-113762500D02*
X125205714Y-113833928D01*
X125205714Y-113833928D02*
X125562857Y-113833928D01*
X125562857Y-113833928D02*
X125705714Y-113762500D01*
X125705714Y-113762500D02*
X125777142Y-113619642D01*
X125777142Y-113619642D02*
X125777142Y-113476785D01*
X125777142Y-113476785D02*
X125705714Y-113333928D01*
X125705714Y-113333928D02*
X125562857Y-113262500D01*
X125562857Y-113262500D02*
X125205714Y-113262500D01*
X125205714Y-113262500D02*
X125062857Y-113191071D01*
X124348571Y-113833928D02*
X124348571Y-112333928D01*
X124205714Y-113262500D02*
X123777142Y-113833928D01*
X123777142Y-112833928D02*
X124348571Y-113405357D01*
X123134285Y-113262500D02*
X121991428Y-113262500D01*
X120991427Y-112333928D02*
X120705713Y-112333928D01*
X120705713Y-112333928D02*
X120562856Y-112405357D01*
X120562856Y-112405357D02*
X120419999Y-112548214D01*
X120419999Y-112548214D02*
X120348570Y-112833928D01*
X120348570Y-112833928D02*
X120348570Y-113333928D01*
X120348570Y-113333928D02*
X120419999Y-113619642D01*
X120419999Y-113619642D02*
X120562856Y-113762500D01*
X120562856Y-113762500D02*
X120705713Y-113833928D01*
X120705713Y-113833928D02*
X120991427Y-113833928D01*
X120991427Y-113833928D02*
X121134285Y-113762500D01*
X121134285Y-113762500D02*
X121277142Y-113619642D01*
X121277142Y-113619642D02*
X121348570Y-113333928D01*
X121348570Y-113333928D02*
X121348570Y-112833928D01*
X121348570Y-112833928D02*
X121277142Y-112548214D01*
X121277142Y-112548214D02*
X121134285Y-112405357D01*
X121134285Y-112405357D02*
X120991427Y-112333928D01*
X119062856Y-112833928D02*
X119062856Y-113833928D01*
X119705713Y-112833928D02*
X119705713Y-113619642D01*
X119705713Y-113619642D02*
X119634284Y-113762500D01*
X119634284Y-113762500D02*
X119491427Y-113833928D01*
X119491427Y-113833928D02*
X119277141Y-113833928D01*
X119277141Y-113833928D02*
X119134284Y-113762500D01*
X119134284Y-113762500D02*
X119062856Y-113691071D01*
X118562855Y-112833928D02*
X117991427Y-112833928D01*
X118348570Y-112333928D02*
X118348570Y-113619642D01*
X118348570Y-113619642D02*
X118277141Y-113762500D01*
X118277141Y-113762500D02*
X118134284Y-113833928D01*
X118134284Y-113833928D02*
X117991427Y-113833928D01*
X115848570Y-113048214D02*
X115634284Y-113119642D01*
X115634284Y-113119642D02*
X115562855Y-113191071D01*
X115562855Y-113191071D02*
X115491427Y-113333928D01*
X115491427Y-113333928D02*
X115491427Y-113548214D01*
X115491427Y-113548214D02*
X115562855Y-113691071D01*
X115562855Y-113691071D02*
X115634284Y-113762500D01*
X115634284Y-113762500D02*
X115777141Y-113833928D01*
X115777141Y-113833928D02*
X116348570Y-113833928D01*
X116348570Y-113833928D02*
X116348570Y-112333928D01*
X116348570Y-112333928D02*
X115848570Y-112333928D01*
X115848570Y-112333928D02*
X115705713Y-112405357D01*
X115705713Y-112405357D02*
X115634284Y-112476785D01*
X115634284Y-112476785D02*
X115562855Y-112619642D01*
X115562855Y-112619642D02*
X115562855Y-112762500D01*
X115562855Y-112762500D02*
X115634284Y-112905357D01*
X115634284Y-112905357D02*
X115705713Y-112976785D01*
X115705713Y-112976785D02*
X115848570Y-113048214D01*
X115848570Y-113048214D02*
X116348570Y-113048214D01*
X114634284Y-113833928D02*
X114777141Y-113762500D01*
X114777141Y-113762500D02*
X114848570Y-113691071D01*
X114848570Y-113691071D02*
X114919998Y-113548214D01*
X114919998Y-113548214D02*
X114919998Y-113119642D01*
X114919998Y-113119642D02*
X114848570Y-112976785D01*
X114848570Y-112976785D02*
X114777141Y-112905357D01*
X114777141Y-112905357D02*
X114634284Y-112833928D01*
X114634284Y-112833928D02*
X114419998Y-112833928D01*
X114419998Y-112833928D02*
X114277141Y-112905357D01*
X114277141Y-112905357D02*
X114205713Y-112976785D01*
X114205713Y-112976785D02*
X114134284Y-113119642D01*
X114134284Y-113119642D02*
X114134284Y-113548214D01*
X114134284Y-113548214D02*
X114205713Y-113691071D01*
X114205713Y-113691071D02*
X114277141Y-113762500D01*
X114277141Y-113762500D02*
X114419998Y-113833928D01*
X114419998Y-113833928D02*
X114634284Y-113833928D01*
X112848570Y-113833928D02*
X112848570Y-113048214D01*
X112848570Y-113048214D02*
X112919998Y-112905357D01*
X112919998Y-112905357D02*
X113062855Y-112833928D01*
X113062855Y-112833928D02*
X113348570Y-112833928D01*
X113348570Y-112833928D02*
X113491427Y-112905357D01*
X112848570Y-113762500D02*
X112991427Y-113833928D01*
X112991427Y-113833928D02*
X113348570Y-113833928D01*
X113348570Y-113833928D02*
X113491427Y-113762500D01*
X113491427Y-113762500D02*
X113562855Y-113619642D01*
X113562855Y-113619642D02*
X113562855Y-113476785D01*
X113562855Y-113476785D02*
X113491427Y-113333928D01*
X113491427Y-113333928D02*
X113348570Y-113262500D01*
X113348570Y-113262500D02*
X112991427Y-113262500D01*
X112991427Y-113262500D02*
X112848570Y-113191071D01*
X112134284Y-113833928D02*
X112134284Y-112833928D01*
X112134284Y-113119642D02*
X112062855Y-112976785D01*
X112062855Y-112976785D02*
X111991427Y-112905357D01*
X111991427Y-112905357D02*
X111848569Y-112833928D01*
X111848569Y-112833928D02*
X111705712Y-112833928D01*
X110562856Y-113833928D02*
X110562856Y-112333928D01*
X110562856Y-113762500D02*
X110705713Y-113833928D01*
X110705713Y-113833928D02*
X110991427Y-113833928D01*
X110991427Y-113833928D02*
X111134284Y-113762500D01*
X111134284Y-113762500D02*
X111205713Y-113691071D01*
X111205713Y-113691071D02*
X111277141Y-113548214D01*
X111277141Y-113548214D02*
X111277141Y-113119642D01*
X111277141Y-113119642D02*
X111205713Y-112976785D01*
X111205713Y-112976785D02*
X111134284Y-112905357D01*
X111134284Y-112905357D02*
X110991427Y-112833928D01*
X110991427Y-112833928D02*
X110705713Y-112833928D01*
X110705713Y-112833928D02*
X110562856Y-112905357D01*
X108848570Y-112833928D02*
X108491427Y-113833928D01*
X108491427Y-113833928D02*
X108134284Y-112833928D01*
X106777141Y-113833928D02*
X107634284Y-113833928D01*
X107205713Y-113833928D02*
X107205713Y-112333928D01*
X107205713Y-112333928D02*
X107348570Y-112548214D01*
X107348570Y-112548214D02*
X107491427Y-112691071D01*
X107491427Y-112691071D02*
X107634284Y-112762500D01*
X106134285Y-113691071D02*
X106062856Y-113762500D01*
X106062856Y-113762500D02*
X106134285Y-113833928D01*
X106134285Y-113833928D02*
X106205713Y-113762500D01*
X106205713Y-113762500D02*
X106134285Y-113691071D01*
X106134285Y-113691071D02*
X106134285Y-113833928D01*
X105134284Y-112333928D02*
X104991427Y-112333928D01*
X104991427Y-112333928D02*
X104848570Y-112405357D01*
X104848570Y-112405357D02*
X104777142Y-112476785D01*
X104777142Y-112476785D02*
X104705713Y-112619642D01*
X104705713Y-112619642D02*
X104634284Y-112905357D01*
X104634284Y-112905357D02*
X104634284Y-113262500D01*
X104634284Y-113262500D02*
X104705713Y-113548214D01*
X104705713Y-113548214D02*
X104777142Y-113691071D01*
X104777142Y-113691071D02*
X104848570Y-113762500D01*
X104848570Y-113762500D02*
X104991427Y-113833928D01*
X104991427Y-113833928D02*
X105134284Y-113833928D01*
X105134284Y-113833928D02*
X105277142Y-113762500D01*
X105277142Y-113762500D02*
X105348570Y-113691071D01*
X105348570Y-113691071D02*
X105419999Y-113548214D01*
X105419999Y-113548214D02*
X105491427Y-113262500D01*
X105491427Y-113262500D02*
X105491427Y-112905357D01*
X105491427Y-112905357D02*
X105419999Y-112619642D01*
X105419999Y-112619642D02*
X105348570Y-112476785D01*
X105348570Y-112476785D02*
X105277142Y-112405357D01*
X105277142Y-112405357D02*
X105134284Y-112333928D01*
X129419999Y-117693928D02*
X128348571Y-117693928D01*
X128991428Y-117051071D02*
X129419999Y-118979642D01*
X128491428Y-118336785D02*
X129562856Y-118336785D01*
X128919999Y-118979642D02*
X128491428Y-117051071D01*
X127848571Y-118693928D02*
X127848571Y-117693928D01*
X127848571Y-117836785D02*
X127777142Y-117765357D01*
X127777142Y-117765357D02*
X127634285Y-117693928D01*
X127634285Y-117693928D02*
X127419999Y-117693928D01*
X127419999Y-117693928D02*
X127277142Y-117765357D01*
X127277142Y-117765357D02*
X127205714Y-117908214D01*
X127205714Y-117908214D02*
X127205714Y-118693928D01*
X127205714Y-117908214D02*
X127134285Y-117765357D01*
X127134285Y-117765357D02*
X126991428Y-117693928D01*
X126991428Y-117693928D02*
X126777142Y-117693928D01*
X126777142Y-117693928D02*
X126634285Y-117765357D01*
X126634285Y-117765357D02*
X126562856Y-117908214D01*
X126562856Y-117908214D02*
X126562856Y-118693928D01*
X125205714Y-118693928D02*
X125205714Y-117908214D01*
X125205714Y-117908214D02*
X125277142Y-117765357D01*
X125277142Y-117765357D02*
X125419999Y-117693928D01*
X125419999Y-117693928D02*
X125705714Y-117693928D01*
X125705714Y-117693928D02*
X125848571Y-117765357D01*
X125205714Y-118622500D02*
X125348571Y-118693928D01*
X125348571Y-118693928D02*
X125705714Y-118693928D01*
X125705714Y-118693928D02*
X125848571Y-118622500D01*
X125848571Y-118622500D02*
X125919999Y-118479642D01*
X125919999Y-118479642D02*
X125919999Y-118336785D01*
X125919999Y-118336785D02*
X125848571Y-118193928D01*
X125848571Y-118193928D02*
X125705714Y-118122500D01*
X125705714Y-118122500D02*
X125348571Y-118122500D01*
X125348571Y-118122500D02*
X125205714Y-118051071D01*
X123848571Y-118693928D02*
X123848571Y-117908214D01*
X123848571Y-117908214D02*
X123919999Y-117765357D01*
X123919999Y-117765357D02*
X124062856Y-117693928D01*
X124062856Y-117693928D02*
X124348571Y-117693928D01*
X124348571Y-117693928D02*
X124491428Y-117765357D01*
X123848571Y-118622500D02*
X123991428Y-118693928D01*
X123991428Y-118693928D02*
X124348571Y-118693928D01*
X124348571Y-118693928D02*
X124491428Y-118622500D01*
X124491428Y-118622500D02*
X124562856Y-118479642D01*
X124562856Y-118479642D02*
X124562856Y-118336785D01*
X124562856Y-118336785D02*
X124491428Y-118193928D01*
X124491428Y-118193928D02*
X124348571Y-118122500D01*
X124348571Y-118122500D02*
X123991428Y-118122500D01*
X123991428Y-118122500D02*
X123848571Y-118051071D01*
X123134285Y-118693928D02*
X123134285Y-117193928D01*
X122991428Y-118122500D02*
X122562856Y-118693928D01*
X122562856Y-117693928D02*
X123134285Y-118265357D01*
X121919999Y-118693928D02*
X121919999Y-117693928D01*
X121919999Y-117836785D02*
X121848570Y-117765357D01*
X121848570Y-117765357D02*
X121705713Y-117693928D01*
X121705713Y-117693928D02*
X121491427Y-117693928D01*
X121491427Y-117693928D02*
X121348570Y-117765357D01*
X121348570Y-117765357D02*
X121277142Y-117908214D01*
X121277142Y-117908214D02*
X121277142Y-118693928D01*
X121277142Y-117908214D02*
X121205713Y-117765357D01*
X121205713Y-117765357D02*
X121062856Y-117693928D01*
X121062856Y-117693928D02*
X120848570Y-117693928D01*
X120848570Y-117693928D02*
X120705713Y-117765357D01*
X120705713Y-117765357D02*
X120634284Y-117908214D01*
X120634284Y-117908214D02*
X120634284Y-118693928D01*
X119348570Y-118622500D02*
X119491427Y-118693928D01*
X119491427Y-118693928D02*
X119777142Y-118693928D01*
X119777142Y-118693928D02*
X119919999Y-118622500D01*
X119919999Y-118622500D02*
X119991427Y-118479642D01*
X119991427Y-118479642D02*
X119991427Y-117908214D01*
X119991427Y-117908214D02*
X119919999Y-117765357D01*
X119919999Y-117765357D02*
X119777142Y-117693928D01*
X119777142Y-117693928D02*
X119491427Y-117693928D01*
X119491427Y-117693928D02*
X119348570Y-117765357D01*
X119348570Y-117765357D02*
X119277142Y-117908214D01*
X119277142Y-117908214D02*
X119277142Y-118051071D01*
X119277142Y-118051071D02*
X119991427Y-118193928D01*
X118634285Y-117693928D02*
X118634285Y-118693928D01*
X118634285Y-117836785D02*
X118562856Y-117765357D01*
X118562856Y-117765357D02*
X118419999Y-117693928D01*
X118419999Y-117693928D02*
X118205713Y-117693928D01*
X118205713Y-117693928D02*
X118062856Y-117765357D01*
X118062856Y-117765357D02*
X117991428Y-117908214D01*
X117991428Y-117908214D02*
X117991428Y-118693928D01*
X116705713Y-118622500D02*
X116848570Y-118693928D01*
X116848570Y-118693928D02*
X117134285Y-118693928D01*
X117134285Y-118693928D02*
X117277142Y-118622500D01*
X117277142Y-118622500D02*
X117348570Y-118479642D01*
X117348570Y-118479642D02*
X117348570Y-117908214D01*
X117348570Y-117908214D02*
X117277142Y-117765357D01*
X117277142Y-117765357D02*
X117134285Y-117693928D01*
X117134285Y-117693928D02*
X116848570Y-117693928D01*
X116848570Y-117693928D02*
X116705713Y-117765357D01*
X116705713Y-117765357D02*
X116634285Y-117908214D01*
X116634285Y-117908214D02*
X116634285Y-118051071D01*
X116634285Y-118051071D02*
X117348570Y-118193928D01*
X115419999Y-118622500D02*
X115562856Y-118693928D01*
X115562856Y-118693928D02*
X115848571Y-118693928D01*
X115848571Y-118693928D02*
X115991428Y-118622500D01*
X115991428Y-118622500D02*
X116062856Y-118479642D01*
X116062856Y-118479642D02*
X116062856Y-117908214D01*
X116062856Y-117908214D02*
X115991428Y-117765357D01*
X115991428Y-117765357D02*
X115848571Y-117693928D01*
X115848571Y-117693928D02*
X115562856Y-117693928D01*
X115562856Y-117693928D02*
X115419999Y-117765357D01*
X115419999Y-117765357D02*
X115348571Y-117908214D01*
X115348571Y-117908214D02*
X115348571Y-118051071D01*
X115348571Y-118051071D02*
X116062856Y-118193928D01*
X114705714Y-118693928D02*
X114705714Y-117693928D01*
X114705714Y-117979642D02*
X114634285Y-117836785D01*
X114634285Y-117836785D02*
X114562857Y-117765357D01*
X114562857Y-117765357D02*
X114419999Y-117693928D01*
X114419999Y-117693928D02*
X114277142Y-117693928D01*
D12*
X123190000Y-73660000D03*
D13*
X123190000Y-88900000D03*
D14*
X135890000Y-59690000D03*
X135890000Y-62230000D03*
X135890000Y-64770000D03*
X135890000Y-67310000D03*
X135890000Y-69850000D03*
X135890000Y-72390000D03*
X135890000Y-74930000D03*
X135890000Y-77470000D03*
X135890000Y-80010000D03*
X135890000Y-82550000D03*
X135890000Y-85090000D03*
X135890000Y-87630000D03*
X135890000Y-90170000D03*
X135890000Y-92710000D03*
X135890000Y-95250000D03*
X161290000Y-59690000D03*
X161290000Y-62230000D03*
X161290000Y-64770000D03*
X161290000Y-67310000D03*
X161290000Y-69850000D03*
X161290000Y-72390000D03*
X161290000Y-74930000D03*
X161290000Y-77470000D03*
X161290000Y-80010000D03*
X161290000Y-82550000D03*
X161290000Y-85090000D03*
X161290000Y-87630000D03*
X161290000Y-90170000D03*
X161290000Y-92710000D03*
D15*
X161290000Y-95250000D03*
D16*
X143510000Y-41910000D03*
D17*
X138430000Y-41910000D03*
D16*
X130810000Y-41910000D03*
D17*
X125730000Y-41910000D03*
D16*
X105410000Y-41910000D03*
D17*
X100330000Y-41910000D03*
D16*
X118110000Y-41910000D03*
D17*
X113030000Y-41910000D03*
D12*
X193040000Y-76200000D03*
D13*
X193040000Y-68580000D03*
D18*
X116840000Y-93980000D03*
D19*
X116840000Y-86360000D03*
D18*
X194310000Y-48260000D03*
D19*
X194310000Y-40640000D03*
D18*
X113030000Y-67310000D03*
D19*
X113030000Y-74930000D03*
D18*
X113030000Y-93980000D03*
D19*
X113030000Y-86360000D03*
D18*
X120650000Y-93980000D03*
D19*
X120650000Y-86360000D03*
D18*
X116840000Y-67310000D03*
D19*
X116840000Y-74930000D03*
D18*
X120650000Y-67310000D03*
D19*
X120650000Y-74930000D03*
D18*
X91440000Y-73660000D03*
D19*
X83820000Y-73660000D03*
D18*
X91440000Y-86360000D03*
D19*
X83820000Y-86360000D03*
D18*
X91440000Y-111760000D03*
D19*
X83820000Y-111760000D03*
D18*
X91440000Y-99060000D03*
D19*
X83820000Y-99060000D03*
D18*
X91440000Y-60960000D03*
D19*
X83820000Y-60960000D03*
D18*
X91440000Y-48260000D03*
D19*
X83820000Y-48260000D03*
D16*
X205740000Y-66040000D03*
D17*
X205740000Y-60960000D03*
D16*
X205740000Y-53340000D03*
D17*
X205740000Y-48260000D03*
D16*
X205740000Y-116840000D03*
D17*
X205740000Y-111760000D03*
D16*
X205740000Y-104140000D03*
D17*
X205740000Y-99060000D03*
D16*
X205740000Y-91440000D03*
D17*
X205740000Y-86360000D03*
D16*
X205740000Y-78740000D03*
D17*
X205740000Y-73660000D03*
D16*
X73660000Y-73660000D03*
D17*
X73660000Y-78740000D03*
D16*
X73660000Y-86360000D03*
D17*
X73660000Y-91440000D03*
D16*
X73660000Y-111760000D03*
D17*
X73660000Y-116840000D03*
D16*
X73660000Y-99060000D03*
D17*
X73660000Y-104140000D03*
D16*
X73660000Y-60960000D03*
D17*
X73660000Y-66040000D03*
D16*
X73660000Y-48260000D03*
D17*
X73660000Y-53340000D03*
D20*
X175260000Y-49530000D03*
D21*
X182880000Y-72390000D03*
X175260000Y-52070000D03*
X182880000Y-69850000D03*
X175260000Y-54610000D03*
X182880000Y-67310000D03*
X175260000Y-57150000D03*
X182880000Y-64770000D03*
X175260000Y-59690000D03*
X182880000Y-62230000D03*
X175260000Y-62230000D03*
X182880000Y-59690000D03*
X175260000Y-64770000D03*
X182880000Y-57150000D03*
X175260000Y-67310000D03*
X182880000Y-54610000D03*
X175260000Y-69850000D03*
X182880000Y-52070000D03*
X175260000Y-72390000D03*
X182880000Y-49530000D03*
X182880000Y-82550000D03*
X175260000Y-105410000D03*
X182880000Y-85090000D03*
X175260000Y-102870000D03*
X182880000Y-87630000D03*
X175260000Y-100330000D03*
X182880000Y-90170000D03*
X175260000Y-97790000D03*
X182880000Y-92710000D03*
X175260000Y-95250000D03*
X182880000Y-95250000D03*
X175260000Y-92710000D03*
X182880000Y-97790000D03*
X175260000Y-90170000D03*
X182880000Y-100330000D03*
X175260000Y-87630000D03*
X182880000Y-102870000D03*
X175260000Y-85090000D03*
X182880000Y-105410000D03*
D20*
X175260000Y-82550000D03*
D22*
X177800000Y-40640000D03*
D23*
X180340000Y-40640000D03*
D12*
X189230000Y-51950000D03*
D13*
X189230000Y-44450000D03*
D12*
X187960000Y-84970000D03*
D13*
X187960000Y-77470000D03*
D12*
X107950000Y-76200000D03*
X100330000Y-78740000D03*
X107950000Y-78740000D03*
D24*
X100330000Y-76200000D03*
D12*
X107950000Y-82550000D03*
X100330000Y-85090000D03*
X107950000Y-85090000D03*
D24*
X100330000Y-82550000D03*
D12*
X107950000Y-95250000D03*
X100330000Y-97790000D03*
X107950000Y-97790000D03*
D24*
X100330000Y-95250000D03*
D12*
X107950000Y-88900000D03*
X100330000Y-91440000D03*
X107950000Y-91440000D03*
D24*
X100330000Y-88900000D03*
D12*
X107950000Y-69850000D03*
X100330000Y-72390000D03*
X107950000Y-72390000D03*
D24*
X100330000Y-69850000D03*
D12*
X107950000Y-63500000D03*
X100330000Y-66040000D03*
X107950000Y-66040000D03*
D24*
X100330000Y-63500000D03*
D25*
X173990000Y-102870000D02*
X175260000Y-102870000D01*
X170180000Y-105410000D02*
X172720000Y-102870000D01*
X157480000Y-104140000D02*
X158750000Y-105410000D01*
X157480000Y-101600000D02*
X157480000Y-104140000D01*
X138430000Y-82550000D02*
X157480000Y-101600000D01*
X135890000Y-82550000D02*
X138430000Y-82550000D01*
X172720000Y-102870000D02*
X175260000Y-102870000D01*
X158750000Y-105410000D02*
X160020000Y-106680000D01*
X160020000Y-106680000D02*
X168910000Y-106680000D01*
X168910000Y-106680000D02*
X170180000Y-105410000D01*
X170180000Y-105410000D02*
X171450000Y-104140000D01*
X135890000Y-80285000D02*
X138155000Y-80285000D01*
X138155000Y-80285000D02*
X138705000Y-80285000D01*
X138705000Y-80285000D02*
X157480000Y-99060000D01*
X173810000Y-100330000D02*
X175260000Y-100330000D01*
X167640000Y-100330000D02*
X175260000Y-100330000D01*
X138705000Y-77745000D02*
X157480000Y-96520000D01*
X135890000Y-77745000D02*
X138705000Y-77745000D01*
X157480000Y-96520000D02*
X158750000Y-97790000D01*
X167640000Y-100330000D02*
X168910000Y-100330000D01*
X157480000Y-99060000D02*
X158750000Y-100330000D01*
X158750000Y-100330000D02*
X168910000Y-100330000D01*
X173990000Y-97790000D02*
X175260000Y-97790000D01*
X167640000Y-97790000D02*
X175260000Y-97790000D01*
X167640000Y-97790000D02*
X170180000Y-97790000D01*
X158750000Y-97790000D02*
X167640000Y-97790000D01*
X171450000Y-86360000D02*
X171450000Y-66040000D01*
X172720000Y-87630000D02*
X171450000Y-86360000D01*
X175260000Y-87630000D02*
X172720000Y-87630000D01*
X161290000Y-62230000D02*
X167640000Y-62230000D01*
X167640000Y-62230000D02*
X171450000Y-66040000D01*
X171450000Y-90170000D02*
X175260000Y-90170000D01*
X170180000Y-88900000D02*
X171450000Y-90170000D01*
X170180000Y-71120000D02*
X170180000Y-88900000D01*
X168910000Y-69850000D02*
X170180000Y-71120000D01*
X161290000Y-69850000D02*
X168910000Y-69850000D01*
X170180000Y-59690000D02*
X175260000Y-59690000D01*
X168910000Y-58420000D02*
X170180000Y-59690000D01*
X161290000Y-72390000D02*
X158750000Y-72390000D01*
X158750000Y-72390000D02*
X157480000Y-71120000D01*
X157480000Y-71120000D02*
X157480000Y-54610000D01*
X157480000Y-54610000D02*
X158750000Y-53340000D01*
X158750000Y-53340000D02*
X163830000Y-53340000D01*
X163830000Y-53340000D02*
X168910000Y-58420000D01*
X109220000Y-95250000D02*
X107950000Y-95250000D01*
X110490000Y-93980000D02*
X109220000Y-95250000D01*
X110490000Y-92710000D02*
X110490000Y-93980000D01*
X120650000Y-86360000D02*
X120650000Y-88900000D01*
X123190000Y-86360000D02*
X120650000Y-86360000D01*
X130810000Y-86360000D02*
X123190000Y-86360000D01*
X132080000Y-85090000D02*
X130810000Y-86360000D01*
X120650000Y-88900000D02*
X120650000Y-90170000D01*
X120650000Y-90170000D02*
X119380000Y-91440000D01*
X111760000Y-91440000D02*
X110490000Y-92710000D01*
X119380000Y-91440000D02*
X111760000Y-91440000D01*
X135890000Y-74930000D02*
X133350000Y-74930000D01*
X133350000Y-74930000D02*
X132080000Y-76200000D01*
X132080000Y-76200000D02*
X132080000Y-85090000D01*
X107950000Y-88900000D02*
X115570000Y-88900000D01*
X116840000Y-87630000D02*
X116840000Y-86360000D01*
X115570000Y-88900000D02*
X116840000Y-87630000D01*
X129540000Y-83820000D02*
X118110000Y-83820000D01*
X116840000Y-85090000D02*
X116840000Y-86360000D01*
X118110000Y-83820000D02*
X116840000Y-85090000D01*
X130810000Y-82550000D02*
X129540000Y-83820000D01*
X135890000Y-72390000D02*
X132080000Y-72390000D01*
X132080000Y-72390000D02*
X130810000Y-73660000D01*
X130810000Y-73660000D02*
X130810000Y-82550000D01*
X107950000Y-76200000D02*
X109220000Y-76200000D01*
X109220000Y-76200000D02*
X110490000Y-74930000D01*
X110490000Y-74930000D02*
X113030000Y-74930000D01*
X127000000Y-78740000D02*
X115570000Y-78740000D01*
X128270000Y-77470000D02*
X127000000Y-78740000D01*
X113030000Y-77470000D02*
X113030000Y-74930000D01*
X114300000Y-78740000D02*
X113030000Y-77470000D01*
X115570000Y-78740000D02*
X114300000Y-78740000D01*
X135890000Y-67310000D02*
X129540000Y-67310000D01*
X129540000Y-67310000D02*
X128270000Y-68580000D01*
X128270000Y-68580000D02*
X128270000Y-77470000D01*
X107950000Y-82550000D02*
X111760000Y-82550000D01*
X113030000Y-83820000D02*
X113030000Y-86360000D01*
X111760000Y-82550000D02*
X113030000Y-83820000D01*
X115570000Y-81280000D02*
X113030000Y-83820000D01*
X123190000Y-81280000D02*
X115570000Y-81280000D01*
X129540000Y-80010000D02*
X128270000Y-81280000D01*
X128270000Y-81280000D02*
X124460000Y-81280000D01*
X123190000Y-81280000D02*
X124460000Y-81280000D01*
X135890000Y-69850000D02*
X130810000Y-69850000D01*
X130810000Y-69850000D02*
X129540000Y-71120000D01*
X129540000Y-71120000D02*
X129540000Y-80010000D01*
X107950000Y-69850000D02*
X109220000Y-69850000D01*
X109220000Y-69850000D02*
X110490000Y-71120000D01*
X116840000Y-76200000D02*
X116840000Y-74930000D01*
X118110000Y-77470000D02*
X116840000Y-76200000D01*
X124460000Y-77470000D02*
X118110000Y-77470000D01*
X127000000Y-76200000D02*
X125730000Y-77470000D01*
X125730000Y-77470000D02*
X124460000Y-77470000D01*
X110490000Y-71120000D02*
X111760000Y-72390000D01*
X111760000Y-72390000D02*
X115570000Y-72390000D01*
X115570000Y-72390000D02*
X116840000Y-73660000D01*
X116840000Y-73660000D02*
X116840000Y-74930000D01*
X135890000Y-64770000D02*
X128270000Y-64770000D01*
X128270000Y-64770000D02*
X127000000Y-66040000D01*
X127000000Y-66040000D02*
X127000000Y-76200000D01*
X107950000Y-63500000D02*
X109220000Y-63500000D01*
X109220000Y-63500000D02*
X110490000Y-64770000D01*
X120650000Y-72390000D02*
X120650000Y-74930000D01*
X110490000Y-64770000D02*
X110490000Y-68580000D01*
X110490000Y-68580000D02*
X111760000Y-69850000D01*
X111760000Y-69850000D02*
X119380000Y-69850000D01*
X120650000Y-71120000D02*
X120650000Y-74930000D01*
X119380000Y-69850000D02*
X120650000Y-71120000D01*
X120650000Y-74930000D02*
X121920000Y-76200000D01*
X121920000Y-76200000D02*
X124460000Y-76200000D01*
X124460000Y-76200000D02*
X125730000Y-74930000D01*
X135890000Y-62230000D02*
X128270000Y-62230000D01*
X125730000Y-64770000D02*
X125730000Y-74930000D01*
X128270000Y-62230000D02*
X125730000Y-64770000D01*
X100330000Y-97790000D02*
X107950000Y-97790000D01*
X104140000Y-66040000D02*
X104140000Y-72390000D01*
X104140000Y-72390000D02*
X107950000Y-72390000D01*
X100330000Y-72390000D02*
X104140000Y-72390000D01*
X100330000Y-66040000D02*
X104140000Y-66040000D01*
X104140000Y-66040000D02*
X107950000Y-66040000D01*
X104140000Y-78740000D02*
X104140000Y-72390000D01*
X100330000Y-78740000D02*
X104140000Y-78740000D01*
X104140000Y-78740000D02*
X107950000Y-78740000D01*
X104140000Y-78740000D02*
X104140000Y-85090000D01*
X104140000Y-85090000D02*
X107950000Y-85090000D01*
X100330000Y-85090000D02*
X104140000Y-85090000D01*
X104140000Y-85090000D02*
X104140000Y-91440000D01*
X104140000Y-91440000D02*
X107950000Y-91440000D01*
X100330000Y-91440000D02*
X104140000Y-91440000D01*
X104140000Y-91440000D02*
X104140000Y-97790000D01*
X180340000Y-85090000D02*
X182880000Y-85090000D01*
X179070000Y-86360000D02*
X180340000Y-85090000D01*
X179070000Y-104140000D02*
X179070000Y-86360000D01*
X177800000Y-105410000D02*
X179070000Y-104140000D01*
X175260000Y-105410000D02*
X177800000Y-105410000D01*
X187840000Y-85090000D02*
X187960000Y-84970000D01*
X182880000Y-85090000D02*
X187840000Y-85090000D01*
X189110000Y-52070000D02*
X189230000Y-51950000D01*
X182880000Y-52070000D02*
X189110000Y-52070000D01*
X194310000Y-48260000D02*
X190500000Y-48260000D01*
X189230000Y-49530000D02*
X189230000Y-51950000D01*
X190500000Y-48260000D02*
X189230000Y-49530000D01*
X187960000Y-84970000D02*
X191890000Y-84970000D01*
X193040000Y-83820000D02*
X193040000Y-76200000D01*
X191890000Y-84970000D02*
X193040000Y-83820000D01*
X175260000Y-72390000D02*
X179070000Y-72390000D01*
X179070000Y-72390000D02*
X179070000Y-74930000D01*
X179070000Y-74930000D02*
X180340000Y-76200000D01*
X187960000Y-68580000D02*
X193040000Y-68580000D01*
X186690000Y-69850000D02*
X187960000Y-68580000D01*
X179070000Y-53340000D02*
X179070000Y-72390000D01*
X180340000Y-52070000D02*
X179070000Y-53340000D01*
X182880000Y-52070000D02*
X180340000Y-52070000D01*
X180340000Y-76200000D02*
X184150000Y-76200000D01*
X184150000Y-76200000D02*
X186690000Y-73660000D01*
X186690000Y-73660000D02*
X186690000Y-69850000D01*
X104140000Y-48260000D02*
X104140000Y-66040000D01*
X142240000Y-52070000D02*
X137160000Y-46990000D01*
X142240000Y-73660000D02*
X142240000Y-52070000D01*
X105410000Y-41910000D02*
X113030000Y-41910000D01*
X113030000Y-41910000D02*
X118110000Y-41910000D01*
X104140000Y-48260000D02*
X104140000Y-41910000D01*
X104140000Y-41910000D02*
X105410000Y-41910000D01*
X100330000Y-41910000D02*
X104140000Y-41910000D01*
X137160000Y-46990000D02*
X104140000Y-46990000D01*
X100330000Y-63500000D02*
X97790000Y-63500000D01*
X97790000Y-63500000D02*
X96520000Y-62230000D01*
X96520000Y-62230000D02*
X96520000Y-49530000D01*
X95250000Y-48260000D02*
X91440000Y-48260000D01*
X96520000Y-49530000D02*
X95250000Y-48260000D01*
X91440000Y-60960000D02*
X93980000Y-60960000D01*
X93980000Y-60960000D02*
X95250000Y-62230000D01*
X95250000Y-62230000D02*
X95250000Y-68580000D01*
X95250000Y-68580000D02*
X96520000Y-69850000D01*
X96520000Y-69850000D02*
X100330000Y-69850000D01*
X96520000Y-88900000D02*
X100330000Y-88900000D01*
X95250000Y-97790000D02*
X95250000Y-90170000D01*
X93980000Y-99060000D02*
X95250000Y-97790000D01*
X95250000Y-90170000D02*
X96520000Y-88900000D01*
X91440000Y-99060000D02*
X93980000Y-99060000D01*
X91440000Y-111760000D02*
X93980000Y-111760000D01*
X100330000Y-95250000D02*
X97790000Y-95250000D01*
X97790000Y-95250000D02*
X96520000Y-96520000D01*
X96520000Y-96520000D02*
X96520000Y-110490000D01*
X96520000Y-110490000D02*
X95250000Y-111760000D01*
X95250000Y-111760000D02*
X92710000Y-111760000D01*
X96520000Y-82550000D02*
X100330000Y-82550000D01*
X95250000Y-83820000D02*
X96520000Y-82550000D01*
X95250000Y-85090000D02*
X95250000Y-83820000D01*
X93980000Y-86360000D02*
X95250000Y-85090000D01*
X91440000Y-86360000D02*
X93980000Y-86360000D01*
X96520000Y-76200000D02*
X100330000Y-76200000D01*
X93980000Y-73660000D02*
X96520000Y-76200000D01*
X91440000Y-73660000D02*
X93980000Y-73660000D01*
X68580000Y-114300000D02*
X71120000Y-116840000D01*
X71120000Y-116840000D02*
X73660000Y-116840000D01*
X68580000Y-104140000D02*
X73660000Y-104140000D01*
X68580000Y-104140000D02*
X68580000Y-114300000D01*
X68580000Y-91440000D02*
X73660000Y-91440000D01*
X68580000Y-91440000D02*
X68580000Y-104140000D01*
X68580000Y-78740000D02*
X73660000Y-78740000D01*
X68580000Y-78740000D02*
X68580000Y-91440000D01*
X68580000Y-66040000D02*
X73660000Y-66040000D01*
X68580000Y-66040000D02*
X68580000Y-78740000D01*
X182880000Y-82550000D02*
X179070000Y-82550000D01*
X179070000Y-49530000D02*
X182880000Y-49530000D01*
X107950000Y-97790000D02*
X127000000Y-97790000D01*
X127000000Y-97790000D02*
X132080000Y-92710000D01*
X132080000Y-92710000D02*
X135890000Y-92710000D01*
X142240000Y-73660000D02*
X142240000Y-74930000D01*
X142240000Y-74930000D02*
X160020000Y-92710000D01*
X160020000Y-92710000D02*
X161290000Y-92710000D01*
X135890000Y-92710000D02*
X143510000Y-92710000D01*
X143510000Y-92710000D02*
X158750000Y-107950000D01*
X158750000Y-107950000D02*
X171450000Y-107950000D01*
X171450000Y-107950000D02*
X173990000Y-105410000D01*
X173990000Y-105410000D02*
X175260000Y-105410000D01*
X179070000Y-82550000D02*
X176530000Y-82550000D01*
X176530000Y-82550000D02*
X175260000Y-82550000D01*
X182880000Y-82550000D02*
X182880000Y-78740000D01*
X184150000Y-77470000D02*
X187960000Y-77470000D01*
X182880000Y-78740000D02*
X184150000Y-77470000D01*
X187960000Y-73660000D02*
X189230000Y-72390000D01*
X187960000Y-77470000D02*
X187960000Y-73660000D01*
X184150000Y-44450000D02*
X189230000Y-44450000D01*
X182880000Y-45720000D02*
X184150000Y-44450000D01*
X182880000Y-49530000D02*
X182880000Y-45720000D01*
X177800000Y-44450000D02*
X177800000Y-40640000D01*
X68580000Y-55880000D02*
X68580000Y-66040000D01*
X68580000Y-53340000D02*
X68580000Y-55880000D01*
X73660000Y-53340000D02*
X68580000Y-53340000D01*
X177800000Y-44450000D02*
X177800000Y-49530000D01*
X177800000Y-49530000D02*
X179070000Y-49530000D01*
X175260000Y-49530000D02*
X177800000Y-49530000D01*
X73660000Y-116840000D02*
X78740000Y-116840000D01*
X78740000Y-116840000D02*
X74930000Y-116840000D01*
X189230000Y-72390000D02*
X195580000Y-72390000D01*
X195580000Y-72390000D02*
X198120000Y-69850000D01*
X198120000Y-69850000D02*
X208280000Y-69850000D01*
X189230000Y-44450000D02*
X209550000Y-44450000D01*
X209550000Y-44450000D02*
X210820000Y-45720000D01*
X210820000Y-45720000D02*
X210820000Y-67310000D01*
X210820000Y-67310000D02*
X210820000Y-68580000D01*
X210820000Y-68580000D02*
X209550000Y-69850000D01*
X209550000Y-69850000D02*
X208280000Y-69850000D01*
X68580000Y-44450000D02*
X68580000Y-53340000D01*
X74930000Y-38100000D02*
X72390000Y-40640000D01*
X121920000Y-38100000D02*
X74930000Y-38100000D01*
X72390000Y-40640000D02*
X71120000Y-41910000D01*
X125730000Y-41910000D02*
X121920000Y-38100000D01*
X71120000Y-41910000D02*
X68580000Y-44450000D01*
X125730000Y-41910000D02*
X130810000Y-41910000D01*
X130810000Y-41910000D02*
X138430000Y-41910000D01*
X138430000Y-41910000D02*
X143510000Y-41910000D01*
X143510000Y-41910000D02*
X171450000Y-41910000D01*
X171450000Y-41910000D02*
X175260000Y-45720000D01*
X175260000Y-45720000D02*
X175260000Y-49530000D01*
X128270000Y-102870000D02*
X135890000Y-95250000D01*
X100330000Y-102870000D02*
X128270000Y-102870000D01*
X99060000Y-104140000D02*
X100330000Y-102870000D01*
X99060000Y-115570000D02*
X99060000Y-104140000D01*
X97790000Y-116840000D02*
X99060000Y-115570000D01*
X78740000Y-116840000D02*
X97790000Y-116840000D01*
X180340000Y-40640000D02*
X194310000Y-40640000D01*
X73660000Y-48260000D02*
X83820000Y-48260000D01*
X73660000Y-60960000D02*
X83820000Y-60960000D01*
X73660000Y-99060000D02*
X75498477Y-99060000D01*
X73660000Y-99060000D02*
X83820000Y-99060000D01*
X73660000Y-111760000D02*
X83820000Y-111760000D01*
X73660000Y-86360000D02*
X83820000Y-86360000D01*
X73660000Y-73660000D02*
X83820000Y-73660000D01*
X113030000Y-93980000D02*
X116840000Y-93980000D01*
X116840000Y-93980000D02*
X120650000Y-93980000D01*
X113030000Y-67310000D02*
X116840000Y-67310000D01*
X120650000Y-67310000D02*
X116840000Y-67310000D01*
X120650000Y-67310000D02*
X121920000Y-67310000D01*
X123190000Y-68580000D02*
X123190000Y-73660000D01*
X121920000Y-67310000D02*
X123190000Y-68580000D01*
X120650000Y-93980000D02*
X121920000Y-93980000D01*
X123190000Y-92710000D02*
X123190000Y-88900000D01*
X121920000Y-93980000D02*
X123190000Y-92710000D01*
X139700000Y-73660000D02*
X139700000Y-52070000D01*
X139700000Y-52070000D02*
X138430000Y-50800000D01*
X138430000Y-50800000D02*
X121920000Y-50800000D01*
X121920000Y-50800000D02*
X120650000Y-52070000D01*
X120650000Y-52070000D02*
X120650000Y-67310000D01*
X139700000Y-73660000D02*
X139700000Y-74930000D01*
X160020000Y-95250000D02*
X161290000Y-95250000D01*
X139700000Y-74930000D02*
X160020000Y-95250000D01*
X175260000Y-85090000D02*
X173990000Y-85090000D01*
X173990000Y-85090000D02*
X172720000Y-83820000D01*
X172720000Y-83820000D02*
X172720000Y-64770000D01*
X161290000Y-59690000D02*
X167640000Y-59690000D01*
X167640000Y-59690000D02*
X172720000Y-64770000D01*
X171450000Y-57150000D02*
X175260000Y-57150000D01*
X170180000Y-55880000D02*
X171450000Y-57150000D01*
X161290000Y-74930000D02*
X157480000Y-74930000D01*
X157480000Y-74930000D02*
X156210000Y-73660000D01*
X156210000Y-73660000D02*
X156210000Y-53340000D01*
X156210000Y-53340000D02*
X157480000Y-52070000D01*
X166370000Y-52070000D02*
X170180000Y-55880000D01*
X157480000Y-52070000D02*
X166370000Y-52070000D01*
X172720000Y-54610000D02*
X175260000Y-54610000D01*
X171186392Y-53076392D02*
X172085000Y-53975000D01*
X172085000Y-53975000D02*
X172720000Y-54610000D01*
X171450000Y-53340000D02*
X172085000Y-53975000D01*
X161290000Y-77470000D02*
X156210000Y-77470000D01*
X156210000Y-77470000D02*
X154940000Y-76200000D01*
X154940000Y-76200000D02*
X154940000Y-52070000D01*
X154940000Y-52070000D02*
X156210000Y-50800000D01*
X156210000Y-50800000D02*
X168910000Y-50800000D01*
X168910000Y-50800000D02*
X171450000Y-53340000D01*
X170180000Y-92710000D02*
X175260000Y-92710000D01*
X168910000Y-91440000D02*
X170180000Y-92710000D01*
X161290000Y-80010000D02*
X167640000Y-80010000D01*
X167640000Y-80010000D02*
X168910000Y-81280000D01*
X168910000Y-81280000D02*
X168910000Y-91440000D01*
X168910000Y-95250000D02*
X167640000Y-93980000D01*
X175260000Y-95250000D02*
X168910000Y-95250000D01*
X161290000Y-82550000D02*
X166370000Y-82550000D01*
X166370000Y-82550000D02*
X167640000Y-83820000D01*
X167640000Y-83820000D02*
X167640000Y-93980000D01*
X173990000Y-52070000D02*
X172720000Y-50800000D01*
X175260000Y-52070000D02*
X173990000Y-52070000D01*
X171450000Y-49530000D02*
X172720000Y-50800000D01*
X153670000Y-50800000D02*
X154940000Y-49530000D01*
X153670000Y-83820000D02*
X153670000Y-50800000D01*
X154940000Y-49530000D02*
X171450000Y-49530000D01*
X154940000Y-85090000D02*
X153670000Y-83820000D01*
X161290000Y-85090000D02*
X154940000Y-85090000D01*
X182880000Y-87630000D02*
X193040000Y-87630000D01*
X193040000Y-87630000D02*
X198120000Y-82550000D01*
X198120000Y-82550000D02*
X198120000Y-76200000D01*
X200660000Y-73660000D02*
X205740000Y-73660000D01*
X198120000Y-76200000D02*
X200660000Y-73660000D01*
X182880000Y-90170000D02*
X193040000Y-90170000D01*
X193040000Y-90170000D02*
X201930000Y-81280000D01*
X201930000Y-81280000D02*
X201930000Y-80010000D01*
X203200000Y-78740000D02*
X205740000Y-78740000D01*
X201930000Y-80010000D02*
X203200000Y-78740000D01*
X199390000Y-90170000D02*
X203200000Y-86360000D01*
X182880000Y-92710000D02*
X196850000Y-92710000D01*
X203200000Y-86360000D02*
X205740000Y-86360000D01*
X196850000Y-92710000D02*
X203200000Y-86360000D01*
X204470000Y-92710000D02*
X205740000Y-91440000D01*
X182880000Y-95250000D02*
X199390000Y-95250000D01*
X201930000Y-95250000D02*
X205740000Y-91440000D01*
X199390000Y-95250000D02*
X201930000Y-95250000D01*
X204470000Y-97790000D02*
X205740000Y-99060000D01*
X182880000Y-97790000D02*
X204470000Y-97790000D01*
X204470000Y-104140000D02*
X205740000Y-104140000D01*
X182880000Y-100330000D02*
X198120000Y-100330000D01*
X198120000Y-100330000D02*
X201930000Y-104140000D01*
X201930000Y-104140000D02*
X205740000Y-104140000D01*
X182880000Y-102870000D02*
X184150000Y-102870000D01*
X182880000Y-102870000D02*
X194310000Y-102870000D01*
X196850000Y-102870000D02*
X205740000Y-111760000D01*
X194310000Y-102870000D02*
X196850000Y-102870000D01*
X182880000Y-105410000D02*
X191770000Y-105410000D01*
X191770000Y-105410000D02*
X194310000Y-105410000D01*
X194310000Y-105410000D02*
X205740000Y-116840000D01*
X199390000Y-48260000D02*
X205740000Y-48260000D01*
X193040000Y-54610000D02*
X199390000Y-48260000D01*
X182880000Y-54610000D02*
X193040000Y-54610000D01*
X200660000Y-53340000D02*
X205740000Y-53340000D01*
X196850000Y-57150000D02*
X200660000Y-53340000D01*
X182880000Y-57150000D02*
X196850000Y-57150000D01*
X200660000Y-60960000D02*
X205740000Y-60960000D01*
X182880000Y-59690000D02*
X196850000Y-59690000D01*
X196850000Y-59690000D02*
X199390000Y-59690000D01*
X199390000Y-59690000D02*
X200660000Y-60960000D01*
X201930000Y-66040000D02*
X205740000Y-66040000D01*
X182880000Y-62230000D02*
X195580000Y-62230000D01*
X195580000Y-62230000D02*
X196850000Y-62230000D01*
X200660000Y-66040000D02*
X201930000Y-66040000D01*
X196850000Y-62230000D02*
X200660000Y-66040000D01*
M02*
