%TF.GenerationSoftware,KiCad,Pcbnew,7.0.1-3b83917a11~171~ubuntu20.04.1*%
%TF.CreationDate,2023-03-12T14:30:54+01:00*%
%TF.ProjectId,fluidnc-bob,666c7569-646e-4632-9d62-6f622e6b6963,rev?*%
%TF.SameCoordinates,Original*%
%TF.FileFunction,Drillmap*%
%TF.FilePolarity,Positive*%
%FSLAX45Y45*%
G04 Gerber Fmt 4.5, Leading zero omitted, Abs format (unit mm)*
G04 Created by KiCad (PCBNEW 7.0.1-3b83917a11~171~ubuntu20.04.1) date 2023-03-12 14:30:54*
%MOMM*%
%LPD*%
G01*
G04 APERTURE LIST*
%ADD10C,0.050000*%
%ADD11C,0.200000*%
%ADD12C,0.300000*%
G04 APERTURE END LIST*
D10*
X6783605Y-12573000D02*
G75*
G03*
X6783605Y-12573000I-179605J0D01*
G01*
X6783605Y-3937000D02*
G75*
G03*
X6783605Y-3937000I-179605J0D01*
G01*
X21515605Y-12573000D02*
G75*
G03*
X21515605Y-12573000I-179605J0D01*
G01*
X21515605Y-3937000D02*
G75*
G03*
X21515605Y-3937000I-179605J0D01*
G01*
X6096000Y-13081000D02*
X6096000Y-3429000D01*
X21844000Y-13081000D02*
X6096000Y-13081000D01*
X21844000Y-3429000D02*
X21844000Y-13081000D01*
X6096000Y-3429000D02*
X21844000Y-3429000D01*
D11*
D12*
X13486000Y-5476000D02*
X13786000Y-5776000D01*
X13786000Y-5476000D02*
X13486000Y-5776000D01*
X13486000Y-10171000D02*
X13786000Y-10471000D01*
X13786000Y-10171000D02*
X13486000Y-10471000D01*
X15937000Y-5476000D02*
X16237000Y-5776000D01*
X16237000Y-5476000D02*
X15937000Y-5776000D01*
X15937000Y-10171000D02*
X16237000Y-10471000D01*
X16237000Y-10171000D02*
X15937000Y-10471000D01*
D11*
X6341119Y-13396024D02*
X6341119Y-13196024D01*
X6341119Y-13196024D02*
X6388738Y-13196024D01*
X6388738Y-13196024D02*
X6417309Y-13205548D01*
X6417309Y-13205548D02*
X6436357Y-13224595D01*
X6436357Y-13224595D02*
X6445881Y-13243643D01*
X6445881Y-13243643D02*
X6455405Y-13281738D01*
X6455405Y-13281738D02*
X6455405Y-13310309D01*
X6455405Y-13310309D02*
X6445881Y-13348405D01*
X6445881Y-13348405D02*
X6436357Y-13367452D01*
X6436357Y-13367452D02*
X6417309Y-13386500D01*
X6417309Y-13386500D02*
X6388738Y-13396024D01*
X6388738Y-13396024D02*
X6341119Y-13396024D01*
X6541119Y-13396024D02*
X6541119Y-13262690D01*
X6541119Y-13300786D02*
X6550643Y-13281738D01*
X6550643Y-13281738D02*
X6560167Y-13272214D01*
X6560167Y-13272214D02*
X6579214Y-13262690D01*
X6579214Y-13262690D02*
X6598262Y-13262690D01*
X6664928Y-13396024D02*
X6664928Y-13262690D01*
X6664928Y-13196024D02*
X6655405Y-13205548D01*
X6655405Y-13205548D02*
X6664928Y-13215071D01*
X6664928Y-13215071D02*
X6674452Y-13205548D01*
X6674452Y-13205548D02*
X6664928Y-13196024D01*
X6664928Y-13196024D02*
X6664928Y-13215071D01*
X6788738Y-13396024D02*
X6769690Y-13386500D01*
X6769690Y-13386500D02*
X6760167Y-13367452D01*
X6760167Y-13367452D02*
X6760167Y-13196024D01*
X6893500Y-13396024D02*
X6874452Y-13386500D01*
X6874452Y-13386500D02*
X6864928Y-13367452D01*
X6864928Y-13367452D02*
X6864928Y-13196024D01*
X7122071Y-13396024D02*
X7122071Y-13196024D01*
X7122071Y-13196024D02*
X7188738Y-13338881D01*
X7188738Y-13338881D02*
X7255405Y-13196024D01*
X7255405Y-13196024D02*
X7255405Y-13396024D01*
X7436357Y-13396024D02*
X7436357Y-13291262D01*
X7436357Y-13291262D02*
X7426833Y-13272214D01*
X7426833Y-13272214D02*
X7407786Y-13262690D01*
X7407786Y-13262690D02*
X7369690Y-13262690D01*
X7369690Y-13262690D02*
X7350643Y-13272214D01*
X7436357Y-13386500D02*
X7417309Y-13396024D01*
X7417309Y-13396024D02*
X7369690Y-13396024D01*
X7369690Y-13396024D02*
X7350643Y-13386500D01*
X7350643Y-13386500D02*
X7341119Y-13367452D01*
X7341119Y-13367452D02*
X7341119Y-13348405D01*
X7341119Y-13348405D02*
X7350643Y-13329357D01*
X7350643Y-13329357D02*
X7369690Y-13319833D01*
X7369690Y-13319833D02*
X7417309Y-13319833D01*
X7417309Y-13319833D02*
X7436357Y-13310309D01*
X7531595Y-13262690D02*
X7531595Y-13462690D01*
X7531595Y-13272214D02*
X7550643Y-13262690D01*
X7550643Y-13262690D02*
X7588738Y-13262690D01*
X7588738Y-13262690D02*
X7607786Y-13272214D01*
X7607786Y-13272214D02*
X7617309Y-13281738D01*
X7617309Y-13281738D02*
X7626833Y-13300786D01*
X7626833Y-13300786D02*
X7626833Y-13357928D01*
X7626833Y-13357928D02*
X7617309Y-13376976D01*
X7617309Y-13376976D02*
X7607786Y-13386500D01*
X7607786Y-13386500D02*
X7588738Y-13396024D01*
X7588738Y-13396024D02*
X7550643Y-13396024D01*
X7550643Y-13396024D02*
X7531595Y-13386500D01*
X7712548Y-13376976D02*
X7722071Y-13386500D01*
X7722071Y-13386500D02*
X7712548Y-13396024D01*
X7712548Y-13396024D02*
X7703024Y-13386500D01*
X7703024Y-13386500D02*
X7712548Y-13376976D01*
X7712548Y-13376976D02*
X7712548Y-13396024D01*
X7712548Y-13272214D02*
X7722071Y-13281738D01*
X7722071Y-13281738D02*
X7712548Y-13291262D01*
X7712548Y-13291262D02*
X7703024Y-13281738D01*
X7703024Y-13281738D02*
X7712548Y-13272214D01*
X7712548Y-13272214D02*
X7712548Y-13291262D01*
X5893500Y-13623500D02*
X6093500Y-13823500D01*
X6093500Y-13623500D02*
X5893500Y-13823500D01*
X6322071Y-13616024D02*
X6445881Y-13616024D01*
X6445881Y-13616024D02*
X6379214Y-13692214D01*
X6379214Y-13692214D02*
X6407786Y-13692214D01*
X6407786Y-13692214D02*
X6426833Y-13701738D01*
X6426833Y-13701738D02*
X6436357Y-13711262D01*
X6436357Y-13711262D02*
X6445881Y-13730309D01*
X6445881Y-13730309D02*
X6445881Y-13777928D01*
X6445881Y-13777928D02*
X6436357Y-13796976D01*
X6436357Y-13796976D02*
X6426833Y-13806500D01*
X6426833Y-13806500D02*
X6407786Y-13816024D01*
X6407786Y-13816024D02*
X6350643Y-13816024D01*
X6350643Y-13816024D02*
X6331595Y-13806500D01*
X6331595Y-13806500D02*
X6322071Y-13796976D01*
X6531595Y-13796976D02*
X6541119Y-13806500D01*
X6541119Y-13806500D02*
X6531595Y-13816024D01*
X6531595Y-13816024D02*
X6522071Y-13806500D01*
X6522071Y-13806500D02*
X6531595Y-13796976D01*
X6531595Y-13796976D02*
X6531595Y-13816024D01*
X6664928Y-13616024D02*
X6683976Y-13616024D01*
X6683976Y-13616024D02*
X6703024Y-13625548D01*
X6703024Y-13625548D02*
X6712548Y-13635071D01*
X6712548Y-13635071D02*
X6722071Y-13654119D01*
X6722071Y-13654119D02*
X6731595Y-13692214D01*
X6731595Y-13692214D02*
X6731595Y-13739833D01*
X6731595Y-13739833D02*
X6722071Y-13777928D01*
X6722071Y-13777928D02*
X6712548Y-13796976D01*
X6712548Y-13796976D02*
X6703024Y-13806500D01*
X6703024Y-13806500D02*
X6683976Y-13816024D01*
X6683976Y-13816024D02*
X6664928Y-13816024D01*
X6664928Y-13816024D02*
X6645881Y-13806500D01*
X6645881Y-13806500D02*
X6636357Y-13796976D01*
X6636357Y-13796976D02*
X6626833Y-13777928D01*
X6626833Y-13777928D02*
X6617309Y-13739833D01*
X6617309Y-13739833D02*
X6617309Y-13692214D01*
X6617309Y-13692214D02*
X6626833Y-13654119D01*
X6626833Y-13654119D02*
X6636357Y-13635071D01*
X6636357Y-13635071D02*
X6645881Y-13625548D01*
X6645881Y-13625548D02*
X6664928Y-13616024D01*
X6855405Y-13616024D02*
X6874452Y-13616024D01*
X6874452Y-13616024D02*
X6893500Y-13625548D01*
X6893500Y-13625548D02*
X6903024Y-13635071D01*
X6903024Y-13635071D02*
X6912548Y-13654119D01*
X6912548Y-13654119D02*
X6922071Y-13692214D01*
X6922071Y-13692214D02*
X6922071Y-13739833D01*
X6922071Y-13739833D02*
X6912548Y-13777928D01*
X6912548Y-13777928D02*
X6903024Y-13796976D01*
X6903024Y-13796976D02*
X6893500Y-13806500D01*
X6893500Y-13806500D02*
X6874452Y-13816024D01*
X6874452Y-13816024D02*
X6855405Y-13816024D01*
X6855405Y-13816024D02*
X6836357Y-13806500D01*
X6836357Y-13806500D02*
X6826833Y-13796976D01*
X6826833Y-13796976D02*
X6817309Y-13777928D01*
X6817309Y-13777928D02*
X6807786Y-13739833D01*
X6807786Y-13739833D02*
X6807786Y-13692214D01*
X6807786Y-13692214D02*
X6817309Y-13654119D01*
X6817309Y-13654119D02*
X6826833Y-13635071D01*
X6826833Y-13635071D02*
X6836357Y-13625548D01*
X6836357Y-13625548D02*
X6855405Y-13616024D01*
X7045881Y-13616024D02*
X7064929Y-13616024D01*
X7064929Y-13616024D02*
X7083976Y-13625548D01*
X7083976Y-13625548D02*
X7093500Y-13635071D01*
X7093500Y-13635071D02*
X7103024Y-13654119D01*
X7103024Y-13654119D02*
X7112548Y-13692214D01*
X7112548Y-13692214D02*
X7112548Y-13739833D01*
X7112548Y-13739833D02*
X7103024Y-13777928D01*
X7103024Y-13777928D02*
X7093500Y-13796976D01*
X7093500Y-13796976D02*
X7083976Y-13806500D01*
X7083976Y-13806500D02*
X7064929Y-13816024D01*
X7064929Y-13816024D02*
X7045881Y-13816024D01*
X7045881Y-13816024D02*
X7026833Y-13806500D01*
X7026833Y-13806500D02*
X7017309Y-13796976D01*
X7017309Y-13796976D02*
X7007786Y-13777928D01*
X7007786Y-13777928D02*
X6998262Y-13739833D01*
X6998262Y-13739833D02*
X6998262Y-13692214D01*
X6998262Y-13692214D02*
X7007786Y-13654119D01*
X7007786Y-13654119D02*
X7017309Y-13635071D01*
X7017309Y-13635071D02*
X7026833Y-13625548D01*
X7026833Y-13625548D02*
X7045881Y-13616024D01*
X7198262Y-13816024D02*
X7198262Y-13682690D01*
X7198262Y-13701738D02*
X7207786Y-13692214D01*
X7207786Y-13692214D02*
X7226833Y-13682690D01*
X7226833Y-13682690D02*
X7255405Y-13682690D01*
X7255405Y-13682690D02*
X7274452Y-13692214D01*
X7274452Y-13692214D02*
X7283976Y-13711262D01*
X7283976Y-13711262D02*
X7283976Y-13816024D01*
X7283976Y-13711262D02*
X7293500Y-13692214D01*
X7293500Y-13692214D02*
X7312548Y-13682690D01*
X7312548Y-13682690D02*
X7341119Y-13682690D01*
X7341119Y-13682690D02*
X7360167Y-13692214D01*
X7360167Y-13692214D02*
X7369690Y-13711262D01*
X7369690Y-13711262D02*
X7369690Y-13816024D01*
X7464929Y-13816024D02*
X7464929Y-13682690D01*
X7464929Y-13701738D02*
X7474452Y-13692214D01*
X7474452Y-13692214D02*
X7493500Y-13682690D01*
X7493500Y-13682690D02*
X7522071Y-13682690D01*
X7522071Y-13682690D02*
X7541119Y-13692214D01*
X7541119Y-13692214D02*
X7550643Y-13711262D01*
X7550643Y-13711262D02*
X7550643Y-13816024D01*
X7550643Y-13711262D02*
X7560167Y-13692214D01*
X7560167Y-13692214D02*
X7579214Y-13682690D01*
X7579214Y-13682690D02*
X7607786Y-13682690D01*
X7607786Y-13682690D02*
X7626833Y-13692214D01*
X7626833Y-13692214D02*
X7636357Y-13711262D01*
X7636357Y-13711262D02*
X7636357Y-13816024D01*
X8026833Y-13606500D02*
X7855405Y-13863643D01*
X8283976Y-13616024D02*
X8303024Y-13616024D01*
X8303024Y-13616024D02*
X8322072Y-13625548D01*
X8322072Y-13625548D02*
X8331595Y-13635071D01*
X8331595Y-13635071D02*
X8341119Y-13654119D01*
X8341119Y-13654119D02*
X8350643Y-13692214D01*
X8350643Y-13692214D02*
X8350643Y-13739833D01*
X8350643Y-13739833D02*
X8341119Y-13777928D01*
X8341119Y-13777928D02*
X8331595Y-13796976D01*
X8331595Y-13796976D02*
X8322072Y-13806500D01*
X8322072Y-13806500D02*
X8303024Y-13816024D01*
X8303024Y-13816024D02*
X8283976Y-13816024D01*
X8283976Y-13816024D02*
X8264929Y-13806500D01*
X8264929Y-13806500D02*
X8255405Y-13796976D01*
X8255405Y-13796976D02*
X8245881Y-13777928D01*
X8245881Y-13777928D02*
X8236357Y-13739833D01*
X8236357Y-13739833D02*
X8236357Y-13692214D01*
X8236357Y-13692214D02*
X8245881Y-13654119D01*
X8245881Y-13654119D02*
X8255405Y-13635071D01*
X8255405Y-13635071D02*
X8264929Y-13625548D01*
X8264929Y-13625548D02*
X8283976Y-13616024D01*
X8436357Y-13796976D02*
X8445881Y-13806500D01*
X8445881Y-13806500D02*
X8436357Y-13816024D01*
X8436357Y-13816024D02*
X8426834Y-13806500D01*
X8426834Y-13806500D02*
X8436357Y-13796976D01*
X8436357Y-13796976D02*
X8436357Y-13816024D01*
X8636357Y-13816024D02*
X8522072Y-13816024D01*
X8579214Y-13816024D02*
X8579214Y-13616024D01*
X8579214Y-13616024D02*
X8560167Y-13644595D01*
X8560167Y-13644595D02*
X8541119Y-13663643D01*
X8541119Y-13663643D02*
X8522072Y-13673167D01*
X8826834Y-13816024D02*
X8712548Y-13816024D01*
X8769691Y-13816024D02*
X8769691Y-13616024D01*
X8769691Y-13616024D02*
X8750643Y-13644595D01*
X8750643Y-13644595D02*
X8731595Y-13663643D01*
X8731595Y-13663643D02*
X8712548Y-13673167D01*
X8941119Y-13701738D02*
X8922072Y-13692214D01*
X8922072Y-13692214D02*
X8912548Y-13682690D01*
X8912548Y-13682690D02*
X8903024Y-13663643D01*
X8903024Y-13663643D02*
X8903024Y-13654119D01*
X8903024Y-13654119D02*
X8912548Y-13635071D01*
X8912548Y-13635071D02*
X8922072Y-13625548D01*
X8922072Y-13625548D02*
X8941119Y-13616024D01*
X8941119Y-13616024D02*
X8979215Y-13616024D01*
X8979215Y-13616024D02*
X8998262Y-13625548D01*
X8998262Y-13625548D02*
X9007786Y-13635071D01*
X9007786Y-13635071D02*
X9017310Y-13654119D01*
X9017310Y-13654119D02*
X9017310Y-13663643D01*
X9017310Y-13663643D02*
X9007786Y-13682690D01*
X9007786Y-13682690D02*
X8998262Y-13692214D01*
X8998262Y-13692214D02*
X8979215Y-13701738D01*
X8979215Y-13701738D02*
X8941119Y-13701738D01*
X8941119Y-13701738D02*
X8922072Y-13711262D01*
X8922072Y-13711262D02*
X8912548Y-13720786D01*
X8912548Y-13720786D02*
X8903024Y-13739833D01*
X8903024Y-13739833D02*
X8903024Y-13777928D01*
X8903024Y-13777928D02*
X8912548Y-13796976D01*
X8912548Y-13796976D02*
X8922072Y-13806500D01*
X8922072Y-13806500D02*
X8941119Y-13816024D01*
X8941119Y-13816024D02*
X8979215Y-13816024D01*
X8979215Y-13816024D02*
X8998262Y-13806500D01*
X8998262Y-13806500D02*
X9007786Y-13796976D01*
X9007786Y-13796976D02*
X9017310Y-13777928D01*
X9017310Y-13777928D02*
X9017310Y-13739833D01*
X9017310Y-13739833D02*
X9007786Y-13720786D01*
X9007786Y-13720786D02*
X8998262Y-13711262D01*
X8998262Y-13711262D02*
X8979215Y-13701738D01*
X9207786Y-13816024D02*
X9093500Y-13816024D01*
X9150643Y-13816024D02*
X9150643Y-13616024D01*
X9150643Y-13616024D02*
X9131595Y-13644595D01*
X9131595Y-13644595D02*
X9112548Y-13663643D01*
X9112548Y-13663643D02*
X9093500Y-13673167D01*
X9283976Y-13616024D02*
X9283976Y-13654119D01*
X9360167Y-13616024D02*
X9360167Y-13654119D01*
X9655405Y-13892214D02*
X9645881Y-13882690D01*
X9645881Y-13882690D02*
X9626834Y-13854119D01*
X9626834Y-13854119D02*
X9617310Y-13835071D01*
X9617310Y-13835071D02*
X9607786Y-13806500D01*
X9607786Y-13806500D02*
X9598262Y-13758881D01*
X9598262Y-13758881D02*
X9598262Y-13720786D01*
X9598262Y-13720786D02*
X9607786Y-13673167D01*
X9607786Y-13673167D02*
X9617310Y-13644595D01*
X9617310Y-13644595D02*
X9626834Y-13625548D01*
X9626834Y-13625548D02*
X9645881Y-13596976D01*
X9645881Y-13596976D02*
X9655405Y-13587452D01*
X9817310Y-13682690D02*
X9817310Y-13816024D01*
X9769691Y-13606500D02*
X9722072Y-13749357D01*
X9722072Y-13749357D02*
X9845881Y-13749357D01*
X10074453Y-13816024D02*
X10074453Y-13616024D01*
X10160167Y-13816024D02*
X10160167Y-13711262D01*
X10160167Y-13711262D02*
X10150643Y-13692214D01*
X10150643Y-13692214D02*
X10131596Y-13682690D01*
X10131596Y-13682690D02*
X10103024Y-13682690D01*
X10103024Y-13682690D02*
X10083977Y-13692214D01*
X10083977Y-13692214D02*
X10074453Y-13701738D01*
X10283977Y-13816024D02*
X10264929Y-13806500D01*
X10264929Y-13806500D02*
X10255405Y-13796976D01*
X10255405Y-13796976D02*
X10245881Y-13777928D01*
X10245881Y-13777928D02*
X10245881Y-13720786D01*
X10245881Y-13720786D02*
X10255405Y-13701738D01*
X10255405Y-13701738D02*
X10264929Y-13692214D01*
X10264929Y-13692214D02*
X10283977Y-13682690D01*
X10283977Y-13682690D02*
X10312548Y-13682690D01*
X10312548Y-13682690D02*
X10331596Y-13692214D01*
X10331596Y-13692214D02*
X10341119Y-13701738D01*
X10341119Y-13701738D02*
X10350643Y-13720786D01*
X10350643Y-13720786D02*
X10350643Y-13777928D01*
X10350643Y-13777928D02*
X10341119Y-13796976D01*
X10341119Y-13796976D02*
X10331596Y-13806500D01*
X10331596Y-13806500D02*
X10312548Y-13816024D01*
X10312548Y-13816024D02*
X10283977Y-13816024D01*
X10464929Y-13816024D02*
X10445881Y-13806500D01*
X10445881Y-13806500D02*
X10436358Y-13787452D01*
X10436358Y-13787452D02*
X10436358Y-13616024D01*
X10617310Y-13806500D02*
X10598262Y-13816024D01*
X10598262Y-13816024D02*
X10560167Y-13816024D01*
X10560167Y-13816024D02*
X10541119Y-13806500D01*
X10541119Y-13806500D02*
X10531596Y-13787452D01*
X10531596Y-13787452D02*
X10531596Y-13711262D01*
X10531596Y-13711262D02*
X10541119Y-13692214D01*
X10541119Y-13692214D02*
X10560167Y-13682690D01*
X10560167Y-13682690D02*
X10598262Y-13682690D01*
X10598262Y-13682690D02*
X10617310Y-13692214D01*
X10617310Y-13692214D02*
X10626834Y-13711262D01*
X10626834Y-13711262D02*
X10626834Y-13730309D01*
X10626834Y-13730309D02*
X10531596Y-13749357D01*
X10703024Y-13806500D02*
X10722072Y-13816024D01*
X10722072Y-13816024D02*
X10760167Y-13816024D01*
X10760167Y-13816024D02*
X10779215Y-13806500D01*
X10779215Y-13806500D02*
X10788739Y-13787452D01*
X10788739Y-13787452D02*
X10788739Y-13777928D01*
X10788739Y-13777928D02*
X10779215Y-13758881D01*
X10779215Y-13758881D02*
X10760167Y-13749357D01*
X10760167Y-13749357D02*
X10731596Y-13749357D01*
X10731596Y-13749357D02*
X10712548Y-13739833D01*
X10712548Y-13739833D02*
X10703024Y-13720786D01*
X10703024Y-13720786D02*
X10703024Y-13711262D01*
X10703024Y-13711262D02*
X10712548Y-13692214D01*
X10712548Y-13692214D02*
X10731596Y-13682690D01*
X10731596Y-13682690D02*
X10760167Y-13682690D01*
X10760167Y-13682690D02*
X10779215Y-13692214D01*
X10855405Y-13892214D02*
X10864929Y-13882690D01*
X10864929Y-13882690D02*
X10883977Y-13854119D01*
X10883977Y-13854119D02*
X10893500Y-13835071D01*
X10893500Y-13835071D02*
X10903024Y-13806500D01*
X10903024Y-13806500D02*
X10912548Y-13758881D01*
X10912548Y-13758881D02*
X10912548Y-13720786D01*
X10912548Y-13720786D02*
X10903024Y-13673167D01*
X10903024Y-13673167D02*
X10893500Y-13644595D01*
X10893500Y-13644595D02*
X10883977Y-13625548D01*
X10883977Y-13625548D02*
X10864929Y-13596976D01*
X10864929Y-13596976D02*
X10855405Y-13587452D01*
X11217310Y-13892214D02*
X11207786Y-13882690D01*
X11207786Y-13882690D02*
X11188738Y-13854119D01*
X11188738Y-13854119D02*
X11179215Y-13835071D01*
X11179215Y-13835071D02*
X11169691Y-13806500D01*
X11169691Y-13806500D02*
X11160167Y-13758881D01*
X11160167Y-13758881D02*
X11160167Y-13720786D01*
X11160167Y-13720786D02*
X11169691Y-13673167D01*
X11169691Y-13673167D02*
X11179215Y-13644595D01*
X11179215Y-13644595D02*
X11188738Y-13625548D01*
X11188738Y-13625548D02*
X11207786Y-13596976D01*
X11207786Y-13596976D02*
X11217310Y-13587452D01*
X11293500Y-13682690D02*
X11293500Y-13816024D01*
X11293500Y-13701738D02*
X11303024Y-13692214D01*
X11303024Y-13692214D02*
X11322072Y-13682690D01*
X11322072Y-13682690D02*
X11350643Y-13682690D01*
X11350643Y-13682690D02*
X11369691Y-13692214D01*
X11369691Y-13692214D02*
X11379215Y-13711262D01*
X11379215Y-13711262D02*
X11379215Y-13816024D01*
X11503024Y-13816024D02*
X11483977Y-13806500D01*
X11483977Y-13806500D02*
X11474453Y-13796976D01*
X11474453Y-13796976D02*
X11464929Y-13777928D01*
X11464929Y-13777928D02*
X11464929Y-13720786D01*
X11464929Y-13720786D02*
X11474453Y-13701738D01*
X11474453Y-13701738D02*
X11483977Y-13692214D01*
X11483977Y-13692214D02*
X11503024Y-13682690D01*
X11503024Y-13682690D02*
X11531596Y-13682690D01*
X11531596Y-13682690D02*
X11550643Y-13692214D01*
X11550643Y-13692214D02*
X11560167Y-13701738D01*
X11560167Y-13701738D02*
X11569691Y-13720786D01*
X11569691Y-13720786D02*
X11569691Y-13777928D01*
X11569691Y-13777928D02*
X11560167Y-13796976D01*
X11560167Y-13796976D02*
X11550643Y-13806500D01*
X11550643Y-13806500D02*
X11531596Y-13816024D01*
X11531596Y-13816024D02*
X11503024Y-13816024D01*
X11626834Y-13682690D02*
X11703024Y-13682690D01*
X11655405Y-13616024D02*
X11655405Y-13787452D01*
X11655405Y-13787452D02*
X11664929Y-13806500D01*
X11664929Y-13806500D02*
X11683977Y-13816024D01*
X11683977Y-13816024D02*
X11703024Y-13816024D01*
X11922072Y-13682690D02*
X11922072Y-13882690D01*
X11922072Y-13692214D02*
X11941119Y-13682690D01*
X11941119Y-13682690D02*
X11979215Y-13682690D01*
X11979215Y-13682690D02*
X11998262Y-13692214D01*
X11998262Y-13692214D02*
X12007786Y-13701738D01*
X12007786Y-13701738D02*
X12017310Y-13720786D01*
X12017310Y-13720786D02*
X12017310Y-13777928D01*
X12017310Y-13777928D02*
X12007786Y-13796976D01*
X12007786Y-13796976D02*
X11998262Y-13806500D01*
X11998262Y-13806500D02*
X11979215Y-13816024D01*
X11979215Y-13816024D02*
X11941119Y-13816024D01*
X11941119Y-13816024D02*
X11922072Y-13806500D01*
X12131596Y-13816024D02*
X12112548Y-13806500D01*
X12112548Y-13806500D02*
X12103024Y-13787452D01*
X12103024Y-13787452D02*
X12103024Y-13616024D01*
X12293500Y-13816024D02*
X12293500Y-13711262D01*
X12293500Y-13711262D02*
X12283977Y-13692214D01*
X12283977Y-13692214D02*
X12264929Y-13682690D01*
X12264929Y-13682690D02*
X12226834Y-13682690D01*
X12226834Y-13682690D02*
X12207786Y-13692214D01*
X12293500Y-13806500D02*
X12274453Y-13816024D01*
X12274453Y-13816024D02*
X12226834Y-13816024D01*
X12226834Y-13816024D02*
X12207786Y-13806500D01*
X12207786Y-13806500D02*
X12198262Y-13787452D01*
X12198262Y-13787452D02*
X12198262Y-13768405D01*
X12198262Y-13768405D02*
X12207786Y-13749357D01*
X12207786Y-13749357D02*
X12226834Y-13739833D01*
X12226834Y-13739833D02*
X12274453Y-13739833D01*
X12274453Y-13739833D02*
X12293500Y-13730309D01*
X12360167Y-13682690D02*
X12436358Y-13682690D01*
X12388739Y-13616024D02*
X12388739Y-13787452D01*
X12388739Y-13787452D02*
X12398262Y-13806500D01*
X12398262Y-13806500D02*
X12417310Y-13816024D01*
X12417310Y-13816024D02*
X12436358Y-13816024D01*
X12579215Y-13806500D02*
X12560167Y-13816024D01*
X12560167Y-13816024D02*
X12522072Y-13816024D01*
X12522072Y-13816024D02*
X12503024Y-13806500D01*
X12503024Y-13806500D02*
X12493500Y-13787452D01*
X12493500Y-13787452D02*
X12493500Y-13711262D01*
X12493500Y-13711262D02*
X12503024Y-13692214D01*
X12503024Y-13692214D02*
X12522072Y-13682690D01*
X12522072Y-13682690D02*
X12560167Y-13682690D01*
X12560167Y-13682690D02*
X12579215Y-13692214D01*
X12579215Y-13692214D02*
X12588739Y-13711262D01*
X12588739Y-13711262D02*
X12588739Y-13730309D01*
X12588739Y-13730309D02*
X12493500Y-13749357D01*
X12760167Y-13816024D02*
X12760167Y-13616024D01*
X12760167Y-13806500D02*
X12741120Y-13816024D01*
X12741120Y-13816024D02*
X12703024Y-13816024D01*
X12703024Y-13816024D02*
X12683977Y-13806500D01*
X12683977Y-13806500D02*
X12674453Y-13796976D01*
X12674453Y-13796976D02*
X12664929Y-13777928D01*
X12664929Y-13777928D02*
X12664929Y-13720786D01*
X12664929Y-13720786D02*
X12674453Y-13701738D01*
X12674453Y-13701738D02*
X12683977Y-13692214D01*
X12683977Y-13692214D02*
X12703024Y-13682690D01*
X12703024Y-13682690D02*
X12741120Y-13682690D01*
X12741120Y-13682690D02*
X12760167Y-13692214D01*
X12836358Y-13892214D02*
X12845881Y-13882690D01*
X12845881Y-13882690D02*
X12864929Y-13854119D01*
X12864929Y-13854119D02*
X12874453Y-13835071D01*
X12874453Y-13835071D02*
X12883977Y-13806500D01*
X12883977Y-13806500D02*
X12893500Y-13758881D01*
X12893500Y-13758881D02*
X12893500Y-13720786D01*
X12893500Y-13720786D02*
X12883977Y-13673167D01*
X12883977Y-13673167D02*
X12874453Y-13644595D01*
X12874453Y-13644595D02*
X12864929Y-13625548D01*
X12864929Y-13625548D02*
X12845881Y-13596976D01*
X12845881Y-13596976D02*
X12836358Y-13587452D01*
M02*
